<mxfile host="app.diagrams.net" modified="2023-11-12T09:46:30.693Z" agent="Mozilla/5.0 (Windows NT 10.0; WOW64) AppleWebKit/537.36 (KHTML, like Gecko) Chrome/78.0.3904.108 Safari/537.36" version="21.5.2" etag="FVSCIZa-UrLEk69UD1l_" type="github">
  <diagram name="第 1 页" id="LdHHr-EjlGBkQb0S6M5a">
    <mxGraphModel>
      <root>
        <mxCell id="0" />
        <mxCell id="1" parent="0" />
      </root>
    </mxGraphModel>
  </diagram>
</mxfile>
